<?xml version="1.0" encoding="UTF-8"?><svg id="Layer_1" xmlns="http://www.w3.org/2000/svg" version="1.1" viewBox="0 0 1605.28 340.8" style=" fill: #000;">
  <!-- Generator: Adobe Illustrator 29.8.2, SVG Export Plug-In . SVG Version: 2.1.1 Build 3)  -->
  <path d="M220.94,246.73v51.07H46.95V42.47h52.89v204.26h121.1Z"/>
  <path d="M338.02,41.74h60.19l98.49,255.7h-56.54l-31.19-69.4h-80.5l-27.28,69.4h-56.54l93.38-255.7h0ZM374.5,111.77c-3.65-7.66-1.46-18.97-1.46-27.72h-9.12c0,8.75,2.19,20.06-1.46,27.72l-26.63,78h65.66l-26.99-78h0Z"/>
  <path d="M733.42,226.67c0,61.28-37.21,71.86-101.77,71.86-9.85,0-35.75-.37-58.36-.37v-.36h-52.89V42.47h105.42c53.62,0,94.11,7.66,94.11,62.01,0,26.63-16.05,41.49-47.05,52.43-10.58,3.65-24.8,1.09-35.75,1.09v9.12c10.94,0,25.17-2.55,35.75.73,29.55,9.12,60.55,21.25,60.55,58.82h0ZM610.13,144.29c32.1,0,55.08-4.02,55.08-37.13s-20.79-33.62-55.08-33.62h-36.84v70.75h36.84ZM609.4,258.04c45.96,0,69.3,1.46,69.3-32.83s-30.64-35.38-79.15-35.38c-5.11,0-12.4,0-22.98-.37h-3.28v68.58h36.11Z"/>
  <path d="M758.96,169.24c.36-72.86,55.66-127.5,130.93-127.5,82.41,0,115.23,43.78,119.16,90.02h-53.16c-5.35-16.82-14.27-39.23-64.93-39.23-43.17,0-78.49,24.52-78.49,77.06s34.96,77.06,77.77,77.06c53.87,0,63.86-22.41,69.21-39.58h53.16c-6.42,56.75-41.74,90.37-120.94,90.37s-132.36-54.99-132.72-128.2h0Z"/>
  <path d="M1378.95,298.16h-54.72V42.83h54.72l110.88,143.35c9.49,12.77,15.32,32.46,20.43,47.78l8.39-2.92c-5.1-15.32-12.77-34.29-12.77-50.34V42.83h54.72v255.33h-54.72l-110.52-142.99c-9.85-12.77-15.69-32.46-20.79-47.78l-8.39,2.92c5.1,15.32,12.77,34.29,12.77,50.34v137.51Z"/>
  <path d="M1167.41,297.51h130.34v-127.4c0-72.89-54.83-128.37-130.34-128.37h-1.98c-70.9,0-128.37,57.48-128.37,128.37h0c0,72.56,54.51,127.4,130.35,127.4h0ZM1252.44,169.44c0,49.96-35.08,86.82-85.04,86.82s-84.69-36.85-84.69-86.82,34.73-86.11,84.69-86.11,85.04,36.85,85.04,86.11h0Z"/>
</svg>